<svg xmlns="http://www.w3.org/2000/svg" viewBox="0 0 128 128"><path fill="#2396ED" d="M124.8 52.1c-4.2-2.8-13.6-3.8-20.9-2.4-.9-7-4.8-13.1-11.9-18.6l-4.1-2.7-2.7 4.1c-3.4 5.2-5.2 12.5-4.6 19.4.2 2.4 1 6.7 3.5 10.5-2.5 1.4-7.4 3.2-13.9 3.1H1.5l-.3 2.2c-1 6.8.1 27.4 13.3 43.2 10 12 25 18.1 44.6 18.1 42.5 0 73.9-19.6 88.6-55.2 5.8.1 18.2 0 24.6-12.2.2-.3.6-1.1 1.8-3.4l.7-1.3-3.6-2.4zM17 56.9h11.4c.6 0 1-.4 1-1V45.7c0-.6-.4-1-1-1H17c-.6 0-1 .4-1 1V56c0 .5.5.9 1 .9zm15.7 0h11.4c.6 0 1-.4 1-1V45.7c0-.6-.4-1-1-1H32.7c-.6 0-1 .4-1 1V56c0 .5.5.9 1 .9zm16 0h11.4c.6 0 1-.4 1-1V45.7c0-.6-.4-1-1-1H48.7c-.6 0-1 .4-1 1V56c.1.5.5.9 1 .9zm15.8 0h11.4c.6 0 1-.4 1-1V45.7c0-.6-.4-1-1-1H64.5c-.6 0-1 .4-1 1V56c0 .5.4.9 1 .9zm-31.8-14.6h11.4c.6 0 1-.5 1-1V31c0-.6-.4-1-1-1H32.7c-.6 0-1 .4-1 1v10.3c.1.5.5 1 1 1zm16 0h11.4c.6 0 1-.5 1-1V31c0-.6-.4-1-1-1H48.7c-.6 0-1 .4-1 1v10.3c.1.5.5 1 1 1zm15.8 0h11.4c.6 0 1-.5 1-1V31c0-.6-.5-1-1-1H64.5c-.6 0-1 .4-1 1v10.3c0 .5.4 1 1 1zm0-14.6h11.4c.6 0 1-.4 1-1V15.4c0-.6-.5-1-1-1H64.5c-.6 0-1 .4-1 1v10.3c0 .5.4 1 1 1zm16 29.2h11.4c.6 0 1-.4 1-1V45.7c0-.6-.4-1-1-1H80.5c-.6 0-1 .4-1 1V56c0 .5.4.9 1 .9z"/></svg>