<svg xmlns="http://www.w3.org/2000/svg" viewBox="0 0 128 128"><path fill="#fff" d="M126.7 88.4c-4.3 1.1-7 .3-9.4-3.3-5.5-8.1-11.7-15.8-17.6-23.7l-2.6-3.4c-7 9.4-14 18.5-20.5 28-1.2 1.8-3.4 3-5.3 3.1-5.3.4-10.8 0-16.8 0C62 76.4 71 63.8 80.6 51.8 70.7 40.4 61.1 29.3 51 17.5c5.7 0 9.9-.6 13.8.1 2.1.3 4.3 2.5 5.7 4.4 6.7 9 13.2 18 20.2 27.7 7-9.6 13.7-18.7 20.1-28 1.4-2 2.8-4 6.1-3.9 4.7.1 9.4 0 15.1 0-3.6 4.8-6.7 9-9.9 13.3-4.3 5.7-8.7 11.4-13 17.1-1.5 1.9-1.6 3.3-.1 5.4 9.2 12.3 18.4 24.6 27.9 37.3-3.3 0-6.1 0-9.2-.3zM.7 62.5c.8-3.9 1.4-7.9 2.6-11.7 7.1-25.2 36-35.7 55.9-20.2 11.6 9 14.5 21.8 13.9 36.4H8.2c-.9 23.1 15.7 37 37 30 7.5-2.5 11.9-8.4 14.1-15.7.7-2.4 1.9-4.2 5-4 2.4.1 4.7 0 7.4 0-.8 5.8-2.8 10.8-6.3 15.2-9.8 12.5-23 15.9-38.4 10.9C12.1 98.6 4.9 87 1.3 71.5c-.2-.7-.4-1.3-.7-2V62.5zm7.5-1.4h56.4c-.4-18-11.7-30.8-27.1-30.9-16.9-.3-29 12.3-29.3 30.9z"/></svg>