<svg xmlns="http://www.w3.org/2000/svg" viewBox="0 0 128 128"><path fill="#EA2D2E" d="M47.6 98.3s-5.4 3.2 3.9 4.2c11.3 1.3 17-.1 29.5-2.3 0 0 3.3 2.1 7.8 3.9-27.9 11.9-63.1-.7-41.2-5.8zm-3.4-15.5s-6 4.5 3.3 5.4c12.1 1.2 21.6 1.3 38.2-1.9 0 0 2.3 2.3 5.8 3.6-33.7 9.9-71.3.8-47.3-7.1z"/><path fill="#5382A1" d="M72.8 56.5c6.8 7.8-1.8 14.8-1.8 14.8s17.2-8.9 9.3-20c-7.4-10.4-13-15.5 17.6-33.3 0-.1-48 11.9-25.1 38.5z"/><path fill="#EA2D2E" d="M109.4 109.8s3.9 3.3-4.4 5.8c-15.6 4.7-65.2 6.2-79 .2-5-2.2 4.4-5.2 7.3-5.8 3.1-.7 4.8-.5 4.8-.5-5.5-3.9-35.8 7.7-15.4 11 55.9 9.1 101.9-4.1 86.7-10.7zM50.2 66.7s-25.5 6-9 8.3c7 .9 20.9.7 33.9-.3 10.6-.9 21.3-2.8 21.3-2.8s-3.7 1.6-6.5 3.5c-25.9 6.8-76 3.6-61.6-3.3 12.2-5.9 21.9-5.4 21.9-5.4zm45.9 25.6c26.4-13.7 14.2-26.9 5.7-25.1-2.1.5-3 .8-3 .8s.8-1.2 2.3-1.8c17.1-6 30.3 17.8-5.4 26.7 0 .1.3-.3.4-.6z"/><path fill="#5382A1" d="M80.3 1.9s14.6 14.6-13.9 37.1c-22.8 18.1-5.2 28.5 0 40.3-13.3-12.1-23.1-22.7-16.5-32.6C59.7 32.2 86.2 25.2 80.3 1.9z"/><path fill="#EA2D2E" d="M52.8 126c25.3 1.6 64.2-.9 65.1-12.9 0 0-1.8 4.5-21 8.1-21.6 4.1-48.3 3.6-64.1 1 .1-.1 3.4 2.7 20 3.8z"/></svg>