<svg xmlns="http://www.w3.org/2000/svg" viewBox="0 0 128 128"><rect width="128" height="128" rx="12" fill="#F7DF1E"/><path fill="#000" d="M67.3 106.9c2.5 4.1 5.8 7.2 11.6 7.2 4.9 0 8-2.4 8-5.8 0-4-3.2-5.5-8.6-7.8l-2.9-1.3c-8.6-3.7-14.3-8.3-14.3-17.9 0-8.9 6.8-15.6 17.4-15.6 7.5 0 12.9 2.6 16.8 9.4l-9.2 5.9c-2-3.6-4.2-5.1-7.6-5.1-3.5 0-5.7 2.2-5.7 5.1 0 3.5 2.2 4.9 7.3 7.1l2.9 1.2c10.1 4.3 15.8 8.7 15.8 18.5 0 10.7-8.4 16.5-19.7 16.5-11 0-18.1-5.3-21.6-12.1l9.8-5.2zm-42.4 1c1.9 3.3 3.6 6.1 7.7 6.1 3.9 0 6.4-1.5 6.4-7.5V65.5h11.9v41.2c0 12.4-7.3 18-17.9 18-9.6 0-15.2-5-18-10.9l9.9-5.9z"/></svg>