<svg xmlns="http://www.w3.org/2000/svg" viewBox="0 0 128 128"><path fill="#83CD29" d="M64 120.6c-1.7 0-3.3-.4-4.8-1.3l-15.3-9c-2.3-1.3-1.2-1.7-.4-2 3-1 3.7-1.4 6.9-3.2.3-.2.8-.1 1.1.1L63.3 113c.4.2 1 .2 1.4 0l45.9-26.5c.4-.2.7-.7.7-1.2V32.4c0-.5-.3-1-.7-1.2L64.7 4.7c-.4-.2-1-.2-1.4 0L17.5 31.2c-.5.2-.7.7-.7 1.2v53c0 .5.3 1 .7 1.2l12.6 7.3c6.8 3.4 11-.6 11-4.7V35.9c0-.7.6-1.4 1.4-1.4h5.8c.7 0 1.4.6 1.4 1.4v53.2c0 9.1-5 14.4-13.7 14.4-2.7 0-4.8 0-10.7-2.9l-12-6.9c-3-1.7-4.8-5-4.8-8.4V32.4c0-3.5 1.8-6.7 4.8-8.4L61.3 3.5c2.9-1.6 6.7-1.6 9.5 0l45.9 26.5c3 1.7 4.8 5 4.8 8.4v53c0 3.4-1.8 6.7-4.8 8.4l-45.9 26.5c-1.4.8-3.1 1.3-4.8 1.3z"/><path fill="#83CD29" d="M78.2 85.1c-20.1 0-24.3-9.2-24.3-17 0-.8.6-1.4 1.4-1.4h5.9c.7 0 1.3.5 1.4 1.2.9 6 3.5 9 15.6 9 9.6 0 13.7-2.2 13.7-7.3 0-2.9-1.2-5.1-16.1-6.6-12.5-1.2-20.2-4-20.2-14 0-9.2 7.8-14.7 20.8-14.7 14.6 0 21.9 5.1 22.8 16 0 .4-.1.8-.4 1.1-.3.3-.6.4-1 .4h-5.9c-.6 0-1.2-.5-1.4-1.1-1.4-6.3-4.9-8.3-14.1-8.3-10.3 0-11.5 3.6-11.5 6.3 0 3.3 1.4 4.2 15.6 6.1 14 1.9 20.7 4.5 20.7 14.4-.1 10-8.4 15.9-22.9 15.9z"/></svg>