<svg xmlns="http://www.w3.org/2000/svg" viewBox="0 0 128 128"><path fill="#6DB33F" d="M116.452 9.601a50.366 50.366 0 0 1-6.858 12.081C99.566 8.893 84.088.605 66.931.52 37.98.352 14.398 23.852 14.229 52.804c-.169 19.28 10.135 36.195 25.529 45.318l2.027.985c15.815 7.603 34.925 6.492 49.729-2.856l-1.1-1.493c-13.038 8.083-30.188 8.758-43.994 1.24-13.805-7.519-22.448-21.661-22.37-36.899.198-23.528 19.59-42.591 43.285-42.422 18.519.253 34.505 12.166 40.303 28.866l1.493.73c3.799-6.18 6.493-13.107 7.83-20.373.422-5.443-.535-12.335-.508-16.299zM92.253 42.262c-.645.169-1.29.423-1.89.675 0 0-19.391 8.252-25.884 15.506-8.673 9.655-.56 26.696 13.528 26.696 7.014 0 11.739-3.547 14.79-7.688 3.97-5.246 3.126-16.103-.544-35.189zm-46.472 57.08c-1.071 1.324-2.649 2.1-4.307 2.111a5.378 5.378 0 0 1-5.39-5.39c.028-1.465.644-2.845 1.69-3.889l14.259-14.26 3.716 3.717-9.968 17.711zm49.01-13.698c-5.331 6.824-13.26 7.857-16.19 7.857-8.418 0-15.4-4.78-18.875-12.251-3.138-6.717-2.521-13.35 1.577-18.19 2.523-2.958 14.34-9.12 23.184-13.11-1.465.054-2.946.195-4.41.424-1.044-4.24-1.437-8.82-.927-13.445 1.014-5.896 3.575-11.368 7.381-15.791-8.504 12.08-11.51 28.717-4.27 43.093 1.438 3.041 3.379 5.884 5.744 8.47 7.295 7.895 7.604 12.758 6.786 12.943z"/></svg>