<svg xmlns="http://www.w3.org/2000/svg" viewBox="0 0 128 128"><defs><linearGradient id="sb1" x1="30" y1="30" x2="90" y2="120" gradientUnits="userSpaceOnUse"><stop offset="0" stop-color="#249361"/><stop offset="1" stop-color="#3ECF8E"/></linearGradient></defs><path fill="url(#sb1)" d="M70 8v56h44a4 4 0 0 1 3.1 6.5L58 124c-3 3.7-9 1.6-9-3.2V64H5a4 4 0 0 1-3.1-6.5L61 4c3-3.7 9-1.6 9 3.2z" opacity=".9"/><path fill="#3ECF8E" d="M70 8v56h44a4 4 0 0 1 3.1 6.5L58 124c-3 3.7-9 1.6-9-3.2V64h44L70 8z" opacity=".6"/></svg>