<svg xmlns="http://www.w3.org/2000/svg" viewBox="0 0 128 128"><rect width="128" height="128" rx="12" fill="#3178C6"/><path fill="#fff" d="M22.7 47v9.8h15.5v44.1h11.1V56.8H64.9V47zm87.7 43.6c-.7-1.2-1.7-2.3-3-3.2-1.3-.9-3-1.7-4.9-2.5l-3.5-1.4c-1.2-.5-2.2-1-3-1.5s-1.3-1-1.7-1.6c-.3-.6-.5-1.3-.5-2 0-1.4.5-2.5 1.5-3.3s2.3-1.2 4-1.2c1.6 0 2.9.3 3.9 1 1 .6 1.9 1.6 2.7 2.9l7.8-5c-1.4-2.4-3.3-4.2-5.7-5.5-2.4-1.2-5.3-1.9-8.6-1.9-2.8 0-5.3.5-7.5 1.5s-3.9 2.4-5.1 4.2c-1.2 1.8-1.8 3.9-1.8 6.3 0 2.3.5 4.3 1.5 5.9s2.3 2.9 3.9 4c1.6 1 3.4 2 5.5 2.8l3.5 1.4c1.4.6 2.6 1.1 3.4 1.7.9.5 1.5 1.2 2 1.9s.6 1.5.6 2.4c0 1.4-.5 2.5-1.6 3.4-1 .8-2.6 1.2-4.6 1.2-2.1 0-3.9-.4-5.3-1.3s-2.6-2.3-3.6-4.2l-8.1 4.7c1.6 3 3.8 5.4 6.6 7s6.2 2.4 10.3 2.4c2.9 0 5.6-.5 7.9-1.5 2.3-1 4.1-2.5 5.5-4.4s2-4.1 2-6.7c.1-2.3-.3-4.3-1-5.5z"/></svg>